<svg viewBox="0 0 24 24" fill="none" xmlns="http://www.w3.org/2000/svg" id="Copy--Streamline-Solar" height="24" width="24">
  <desc>
    Copy Streamline Icon: https://streamlinehq.com
  </desc>
  <path d="M15.24 2h-3.8942c-1.76421 -0.00001 -3.16162 -0.00003 -4.25526 0.1476 -1.12553 0.15193 -2.03652 0.47204 -2.75495 1.19336 -0.71842 0.72131 -1.03726 1.63596 -1.18858 2.76601C2.99997 7.205 2.99999 8.60802 3 10.3793v5.8376c0 1.5081 0.91995 2.8005 2.22717 3.3423 -0.06728 -0.9094 -0.06723 -2.1855 -0.06717 -3.2472l0 -4.9144 0 -0.0952c-0.00007 -1.2817 -0.00014 -2.38596 0.11828 -3.27029 0.12691 -0.94773 0.41311 -1.85619 1.14702 -2.59305 0.73391 -0.73687 1.63874 -1.02421 2.58268 -1.15163 0.88079 -0.11889 1.98072 -0.11883 3.25722 -0.11876l0.0948 0.00001h2.88l0.0948 -0.00001c1.2765 -0.00007 2.374 -0.00013 3.2548 0.11876C18.0627 2.94779 16.7616 2 15.24 2Z" fill="#000000" stroke-width="1"></path>
  <path d="M6.6001 11.3974c0 -2.72621 0 -4.0893 0.84353 -4.93622 0.84353 -0.84692 2.20118 -0.84692 4.91647 -0.84692h2.88c2.7153 0 4.0729 0 4.9165 0.84692 0.8435 0.84692 0.8435 2.21002 0.8435 4.93622v4.8193c0 2.7262 0 4.0893 -0.8435 4.9362 -0.8436 0.8469 -2.2012 0.8469 -4.9165 0.8469h-2.88c-2.71529 0 -4.07294 0 -4.91647 -0.8469 -0.84353 -0.8469 -0.84353 -2.21 -0.84353 -4.9362v-4.8193Z" fill="#000000" stroke-width="1"></path>
</svg>