<svg viewBox="0 0 24 24" fill="none" xmlns="http://www.w3.org/2000/svg" id="Sun-2--Streamline-Solar" height="24" width="24">
  <desc>
    Sun 2 Streamline Icon: https://streamlinehq.com
  </desc>
  <path d="M17 12c0 2.7614 -2.2386 5 -5 5 -2.76142 0 -5 -2.2386 -5 -5 0 -2.76142 2.23858 -5 5 -5 2.7614 0 5 2.23858 5 5Z" fill="#000000" stroke-width="1"></path>
  <path fill-rule="evenodd" clip-rule="evenodd" d="M12 1.25c0.4142 0 0.75 0.33579 0.75 0.75v2c0 0.41421 -0.3358 0.75 -0.75 0.75s-0.75 -0.33579 -0.75 -0.75V2c0 -0.41421 0.3358 -0.75 0.75 -0.75ZM3.66865 3.71609c0.2795 -0.3057 0.7539 -0.32694 1.0596 -0.04744l2.22201 2.03159c0.3057 0.2795 0.32694 0.75389 0.04744 1.05959 -0.2795 0.3057 -0.7539 0.32694 -1.0596 0.04744L3.71609 4.77569c-0.3057 -0.2795 -0.32694 -0.7539 -0.04744 -1.0596Zm16.66275 0c0.2795 0.3057 0.2582 0.7801 -0.0475 1.0596l-2.222 2.03158c-0.3057 0.2795 -0.7801 0.25826 -1.0596 -0.04744 -0.2795 -0.3057 -0.2583 -0.78009 0.0474 -1.05959l2.2221 -2.03159c0.3057 -0.2795 0.78 -0.25826 1.0596 0.04744ZM1.25 12c0 -0.4142 0.33579 -0.75 0.75 -0.75h2c0.41421 0 0.75 0.3358 0.75 0.75s-0.33579 0.75 -0.75 0.75H2c-0.41421 0 -0.75 -0.3358 -0.75 -0.75Zm18 0c0 -0.4142 0.3358 -0.75 0.75 -0.75h2c0.4142 0 0.75 0.3358 0.75 0.75s-0.3358 0.75 -0.75 0.75h-2c-0.4142 0 -0.75 -0.3358 -0.75 -0.75Zm-2.2245 5.0252c0.2929 -0.2929 0.7678 -0.2929 1.0607 0l2.222 2.2223c0.2929 0.2929 0.2928 0.7678 -0.0001 1.0607 -0.2929 0.2929 -0.7678 0.2928 -1.0606 -0.0001l-2.222 -2.2223c-0.2929 -0.2929 -0.2929 -0.7677 0 -1.0606Zm-10.05083 0.0001c0.29289 0.2929 0.29289 0.7678 0 1.0607l-2.22223 2.2222c-0.29289 0.2929 -0.76776 0.2929 -1.06066 0 -0.29289 -0.2929 -0.29289 -0.7678 0 -1.0606l2.22223 -2.2223c0.29289 -0.2929 0.76776 -0.2929 1.06066 0ZM12 19.25c0.4142 0 0.75 0.3358 0.75 0.75v2c0 0.4142 -0.3358 0.75 -0.75 0.75s-0.75 -0.3358 -0.75 -0.75v-2c0 -0.4142 0.3358 -0.75 0.75 -0.75Z" fill="#000000" stroke-width="1"></path>
</svg>